/usr/bin/start-video-rec.sh: line 93: kill: (849) - No such process
ffmpeg version 2.8.17-0ubuntu0.1 Copyright (c) 2000-2020 the FFmpeg developers
  built with gcc 5.4.0 (Ubuntu 5.4.0-6ubuntu1~16.04.12) 20160609
  configuration: --prefix=/usr --extra-version=0ubuntu0.1 --build-suffix=-ffmpeg --toolchain=hardened --libdir=/usr/lib/x86_64-linux-gnu --incdir=/usr/include/x86_64-linux-gnu --cc=cc --cxx=g++ --enable-gpl --enable-shared --disable-stripping --disable-decoder=libopenjpeg --disable-decoder=libschroedinger --enable-avresample --enable-avisynth --enable-gnutls --enable-ladspa --enable-libass --enable-libbluray --enable-libbs2b --enable-libcaca --enable-libcdio --enable-libflite --enable-libfontconfig --enable-libfreetype --enable-libfribidi --enable-libgme --enable-libgsm --enable-libmodplug --enable-libmp3lame --enable-libopenjpeg --enable-libopus --enable-libpulse --enable-librtmp --enable-libschroedinger --enable-libshine --enable-libsnappy --enable-libsoxr --enable-libspeex --enable-libssh --enable-libtheora --enable-libtwolame --enable-libvorbis --enable-libvpx --enable-libwavpack --enable-libwebp --enable-libx265 --enable-libxvid --enable-libzvbi --enable-openal --enable-opengl --enable-x11grab --enable-libdc1394 --enable-libiec61883 --enable-libzmq --enable-frei0r --enable-libx264 --enable-libopencv
  libavutil      54. 31.100 / 54. 31.100
  libavcodec     56. 60.100 / 56. 60.100
  libavformat    56. 40.101 / 56. 40.101
  libavdevice    56.  4.100 / 56.  4.100
  libavfilter     5. 40.101 /  5. 40.101
  libavresample   2.  1.  0 /  2.  1.  0
  libswscale      3.  1.101 /  3.  1.101
  libswresample   1.  2.101 /  1.  2.101
  libpostproc    53.  3.100 / 53.  3.100
Input #0, matroska,webm, from '/home/seluser/videos/vid_chrome_or_firefox_40000.mkv':
  Metadata:
    ENCODER         : Lavf56.40.101
  Duration: 00:02:30.40, start: 0.000000, bitrate: 73 kb/s
    Stream #0:0: Video: h264 (Constrained Baseline), yuv420p, 1366x768, SAR 1:1 DAR 683:384, 10 fps, 10 tbr, 1k tbn, 20 tbc (default)
    Metadata:
      ENCODER         : Lavc56.60.100 libx264
      DURATION        : 00:02:30.400000000
[libx264 @ 0x23c2b00] using SAR=1/1
[libx264 @ 0x23c2b00] using cpu capabilities: MMX2 SSE2Fast SSSE3 SSE4.2 AVX FMA3 AVX2 LZCNT BMI2
[libx264 @ 0x23c2b00] profile Constrained Baseline, level 3.2
[libx264 @ 0x23c2b00] 264 - core 148 r2643 5c65704 - H.264/MPEG-4 AVC codec - Copyleft 2003-2015 - http://www.videolan.org/x264.html - options: cabac=0 ref=1 deblock=0:0:0 analyse=0:0 me=dia subme=0 psy=1 psy_rd=1.00:0.00 mixed_ref=0 me_range=16 chroma_me=1 trellis=0 8x8dct=0 cqm=0 deadzone=21,11 fast_pskip=1 chroma_qp_offset=0 threads=3 lookahead_threads=1 sliced_threads=0 nr=0 decimate=1 interlaced=0 bluray_compat=0 constrained_intra=0 bframes=0 weightp=0 keyint=250 keyint_min=10 scenecut=0 intra_refresh=0 rc=crf mbtree=0 crf=23.0 qcomp=0.60 qpmin=0 qpmax=69 qpstep=4 ip_ratio=1.40 aq=0
Output #0, mp4, to '/home/seluser/videos/vid_chrome_or_firefox_40000.mp4':
  Metadata:
    encoder         : Lavf56.40.101
    Stream #0:0: Video: h264 (libx264) ([33][0][0][0] / 0x0021), yuv420p, 1366x768 [SAR 1:1 DAR 683:384], q=-1--1, 10 fps, 10240 tbn, 10 tbc (default)
    Metadata:
      DURATION        : 00:02:30.400000000
      encoder         : Lavc56.60.100 libx264
Stream mapping:
  Stream #0:0 -> #0:0 (h264 (native) -> h264 (libx264))
Press [q] to stop, [?] for help
frame=   16 fps=0.0 q=16.0 size=      40kB time=00:00:01.20 bitrate= 271.8kbits/s    
frame=   37 fps= 36 q=9.0 size=      85kB time=00:00:03.30 bitrate= 209.9kbits/s    
frame=   60 fps= 39 q=9.0 size=     113kB time=00:00:05.60 bitrate= 165.2kbits/s    
frame=   77 fps= 37 q=14.0 size=     151kB time=00:00:07.30 bitrate= 169.5kbits/s    
frame=   96 fps= 37 q=14.0 size=     242kB time=00:00:09.20 bitrate= 215.9kbits/s    
frame=  108 fps= 34 q=10.0 size=     308kB time=00:00:10.40 bitrate= 242.6kbits/s    
frame=  118 fps= 32 q=16.0 size=     354kB time=00:00:11.40 bitrate= 254.7kbits/s    
frame=  130 fps= 31 q=10.0 size=     393kB time=00:00:12.60 bitrate= 255.6kbits/s    
frame=  146 fps= 31 q=9.0 size=     398kB time=00:00:14.20 bitrate= 229.6kbits/s    
frame=  160 fps= 31 q=9.0 size=     399kB time=00:00:15.60 bitrate= 209.3kbits/s    
frame=  172 fps= 30 q=11.0 size=     513kB time=00:00:16.80 bitrate= 250.4kbits/s    
frame=  182 fps= 29 q=9.0 size=     555kB time=00:00:17.80 bitrate= 255.5kbits/s    
frame=  196 fps= 29 q=10.0 size=     556kB time=00:00:19.20 bitrate= 237.2kbits/s    
frame=  216 fps= 29 q=9.0 size=     586kB time=00:00:21.20 bitrate= 226.5kbits/s    
frame=  235 fps= 30 q=9.0 size=     587kB time=00:00:23.10 bitrate= 208.1kbits/s    
frame=  260 fps= 31 q=10.0 size=     703kB time=00:00:25.60 bitrate= 224.9kbits/s    
frame=  283 fps= 32 q=9.0 size=     704kB time=00:00:27.90 bitrate= 206.6kbits/s    
frame=  292 fps= 31 q=9.0 size=     704kB time=00:00:28.80 bitrate= 200.3kbits/s    
frame=  299 fps= 30 q=9.0 size=     704kB time=00:00:29.50 bitrate= 195.6kbits/s    
frame=  321 fps= 31 q=9.0 size=     705kB time=00:00:31.70 bitrate= 182.2kbits/s    
frame=  342 fps= 31 q=9.0 size=     706kB time=00:00:33.80 bitrate= 171.1kbits/s    
frame=  365 fps= 32 q=9.0 size=     707kB time=00:00:36.10 bitrate= 160.4kbits/s    
frame=  374 fps= 31 q=9.0 size=     707kB time=00:00:37.00 bitrate= 156.6kbits/s    
frame=  387 fps= 31 q=9.0 size=     708kB time=00:00:38.30 bitrate= 151.3kbits/s    
frame=  405 fps= 31 q=9.0 size=     708kB time=00:00:40.10 bitrate= 144.7kbits/s    
frame=  417 fps= 30 q=9.0 size=     709kB time=00:00:41.30 bitrate= 140.6kbits/s    
frame=  432 fps= 30 q=9.0 size=     709kB time=00:00:42.80 bitrate= 135.8kbits/s    
frame=  444 fps= 30 q=9.0 size=     710kB time=00:00:44.00 bitrate= 132.1kbits/s    
frame=  454 fps= 30 q=9.0 size=     710kB time=00:00:45.00 bitrate= 129.3kbits/s    
frame=  465 fps= 29 q=9.0 size=     711kB time=00:00:46.10 bitrate= 126.3kbits/s    
frame=  478 fps= 29 q=9.0 size=     711kB time=00:00:47.40 bitrate= 122.9kbits/s    
frame=  491 fps= 29 q=9.0 size=     712kB time=00:00:48.70 bitrate= 119.7kbits/s    
frame=  504 fps= 29 q=18.0 size=     712kB time=00:00:50.00 bitrate= 116.7kbits/s    
frame=  518 fps= 29 q=9.0 size=     827kB time=00:00:51.40 bitrate= 131.9kbits/s    
frame=  530 fps= 29 q=9.0 size=     828kB time=00:00:52.60 bitrate= 128.9kbits/s    
frame=  537 fps= 28 q=-1.0 Lsize=     831kB time=00:00:53.70 bitrate= 126.8kbits/s    
video:828kB audio:0kB subtitle:0kB other streams:0kB global headers:0kB muxing overhead: 0.350573%
[libx264 @ 0x23c2b00] frame I:3     Avg QP:10.67  size: 84971
[libx264 @ 0x23c2b00] frame P:534   Avg QP: 9.69  size:  1110
[libx264 @ 0x23c2b00] mb I  I16..4: 100.0%  0.0%  0.0%
[libx264 @ 0x23c2b00] mb P  I16..4:  0.9%  0.0%  0.0%  P16..4:  1.1%  0.0%  0.0%  0.0%  0.0%    skip:97.9%
[libx264 @ 0x23c2b00] coded y,uvDC,uvAC intra: 14.0% 9.2% 8.5% inter: 0.4% 0.6% 0.3%
[libx264 @ 0x23c2b00] i16 v,h,dc,p: 71% 27%  2%  1%
[libx264 @ 0x23c2b00] i8c dc,h,v,p: 81% 16%  3%  1%
[libx264 @ 0x23c2b00] kb/s:126.25
Exiting normally, received signal 15.
